<?xml version="1.0" encoding="UTF-8"?>
<svg width="592px" height="135px" viewBox="0 0 592 135" version="1.1" xmlns="http://www.w3.org/2000/svg" xmlns:xlink="http://www.w3.org/1999/xlink">
    <!-- Generator: Sketch 63.1 (92452) - https://sketch.com -->
    <title>Group 29</title>
    <desc>Created with Sketch.</desc>
    <g id="Page-1" stroke="none" stroke-width="1" fill="none" fill-rule="evenodd">
        <g id="Group-29" fill="#FFFFFF">
            <path d="M58.5045917,9.9475983e-14 C55.7345917,0.019 52.9355917,0.767 50.3995917,2.316 L50.1995917,2.437 C42.7615917,6.98 40.4145917,16.694 44.9575917,24.133 L60.1875917,49.07 L87.6285917,94 C92.1735917,101.439 101.885592,103.786 109.325592,99.244 L109.524592,99.121 C116.962592,94.578 119.310592,84.864 114.767592,77.425 L72.0955917,7.558 C69.1415917,2.721 63.9995917,0.036 58.7195917,9.9475983e-14 L58.5045917,9.9475983e-14 Z" id="Fill-1"></path>
            <path d="M58.3635917,9.9475983e-14 C53.0825917,0.036 47.9415917,2.721 44.9865917,7.558 L25.7895917,38.991 L2.31559166,77.425 C-2.22740834,84.864 0.119591659,94.578 7.55859166,99.121 L7.75759166,99.244 C15.1965917,103.786 24.9095917,101.439 29.4535917,94 L72.1245917,24.133 C76.6685917,16.694 74.3215917,6.98 66.8825917,2.437 L66.6835917,2.316 C64.1475917,0.767 61.3475917,0.019 58.5785917,9.9475983e-14 L58.3635917,9.9475983e-14 Z" id="Fill-4"></path>
            <path d="M198.703992,44.4856 L198.703992,89.9056 L189.655992,89.9056 L189.655992,86.6146 L189.655992,84.3316 C189.198992,84.7866 188.650992,85.4276 188.011992,85.8846 C184.081992,89.0826 179.055992,91.0026 173.479992,91.0026 C160.412992,91.0026 149.993992,80.4006 149.993992,67.5146 C149.993992,54.6296 160.412992,44.0286 173.479992,44.0286 C178.872992,44.0286 183.898992,45.9476 188.011992,49.0546 C188.558992,49.6046 189.107992,50.3336 189.655992,50.8816 L189.655992,48.7796 L189.655992,44.4856 L198.703992,44.4856 Z M189.746992,67.6986 C189.746992,59.3816 181.704992,52.6186 173.479992,52.6186 C165.162992,52.6186 158.584992,59.3816 158.584992,67.6986 C158.584992,75.9226 165.162992,82.5936 173.479992,82.5936 C181.704992,82.5936 189.746992,76.1066 189.746992,67.6986 L189.746992,67.6986 Z" id="Fill-7"></path>
            <path d="M244.744092,79.8538 C240.723092,86.2498 233.504092,90.9108 225.370092,90.9108 C212.574092,90.9108 202.797092,80.2178 202.797092,67.4238 C202.797092,54.7208 212.574092,43.7548 225.370092,43.7548 C232.955092,43.7548 239.808092,48.1408 243.921092,53.8068 L236.884092,58.1928 C234.234092,54.8118 230.030092,52.4358 225.370092,52.4358 C217.236092,52.4358 211.478092,59.2908 211.478092,67.4238 C211.478092,75.6488 217.236092,82.2298 225.370092,82.2298 C230.030092,82.2298 234.325092,80.1258 236.974092,76.6538 L244.744092,79.8538 Z" id="Fill-9"></path>
            <path d="M286.868092,79.8538 C282.847092,86.2498 275.628092,90.9108 267.493092,90.9108 C254.699092,90.9108 244.921092,80.2178 244.921092,67.4238 C244.921092,54.7208 254.699092,43.7548 267.493092,43.7548 C275.080092,43.7548 281.933092,48.1408 286.046092,53.8068 L279.009092,58.1928 C276.358092,54.8118 272.155092,52.4358 267.493092,52.4358 C259.359092,52.4358 253.602092,59.2908 253.602092,67.4238 C253.602092,75.6488 259.359092,82.2298 267.493092,82.2298 C272.155092,82.2298 276.449092,80.1258 279.101092,76.6538 L286.868092,79.8538 Z" id="Fill-11"></path>
            <path d="M335.223592,75.0091 C330.836592,85.7011 321.879592,91.0011 312.559592,91.0011 C299.580592,91.0011 289.163592,80.3091 289.163592,67.4221 C289.163592,54.4471 299.580592,43.7541 312.559592,43.7541 C325.444592,43.7541 335.863592,54.4471 335.863592,67.4221 C335.863592,68.2471 335.863592,69.2521 335.772592,69.9831 L327.363592,69.9831 L322.702592,69.9831 L298.119592,69.9831 C299.308592,77.0201 305.156592,82.5021 312.559592,82.5021 C318.224592,82.5021 323.160592,79.7611 325.536592,75.0091 L335.223592,75.0091 Z M298.394592,63.1281 L299.947592,63.1281 L324.074592,63.1281 L326.815592,63.1281 C326.540592,62.3981 326.084592,61.6651 325.810592,60.9351 C323.435592,55.9081 318.499592,52.1611 312.559592,52.1611 C306.345592,52.1611 301.317592,56.0911 299.033592,61.3911 C298.759592,62.0311 298.485592,62.5801 298.394592,63.1281 L298.394592,63.1281 Z" id="Fill-13"></path>
            <polygon id="Fill-15" points="340.772592 90.272 349.820592 90.272 349.820592 26.117 340.772592 26.117"></polygon>
            <path d="M400.355392,75.0091 C395.969392,85.7011 387.013392,91.0011 377.690392,91.0011 C364.712392,91.0011 354.295392,80.3091 354.295392,67.4221 C354.295392,54.4471 364.712392,43.7541 377.690392,43.7541 C390.577392,43.7541 400.994392,54.4471 400.994392,67.4221 C400.994392,68.2471 400.994392,69.2521 400.903392,69.9831 L392.497392,69.9831 L387.834392,69.9831 L363.251392,69.9831 C364.439392,77.0201 370.289392,82.5021 377.690392,82.5021 C383.358392,82.5021 388.292392,79.7611 390.667392,75.0091 L400.355392,75.0091 Z M363.525392,63.1281 L365.079392,63.1281 L389.206392,63.1281 L391.948392,63.1281 C391.673392,62.3981 391.216392,61.6651 390.943392,60.9351 C388.566392,55.9081 383.630392,52.1611 377.690392,52.1611 C371.476392,52.1611 366.450392,56.0911 364.165392,61.3911 C363.891392,62.0311 363.616392,62.5801 363.525392,63.1281 L363.525392,63.1281 Z" id="Fill-17"></path>
            <path d="M429.824192,44.3938 L429.824192,52.7108 C429.915192,52.7108 416.937192,51.7968 415.293192,62.6708 L415.293192,90.2718 L405.697192,90.2718 L405.697192,44.5778 L415.293192,44.5778 L415.293192,48.7798 C419.039192,45.7648 420.410192,44.3938 429.824192,44.3938" id="Fill-18"></path>
            <path d="M478.147392,44.4856 L478.147392,89.9056 L469.099392,89.9056 L469.099392,86.6146 L469.099392,84.3316 C468.642392,84.7866 468.094392,85.4276 467.455392,85.8846 C463.525392,89.0826 458.499392,91.0026 452.923392,91.0026 C439.855392,91.0026 429.436392,80.4006 429.436392,67.5146 C429.436392,54.6296 439.855392,44.0286 452.923392,44.0286 C458.316392,44.0286 463.341392,45.9476 467.455392,49.0546 C468.003392,49.6046 468.551392,50.3336 469.099392,50.8816 L469.099392,48.7796 L469.099392,44.4856 L478.147392,44.4856 Z M469.191392,67.6986 C469.191392,59.3816 461.148392,52.6186 452.923392,52.6186 C444.606392,52.6186 438.028392,59.3816 438.028392,67.6986 C438.028392,75.9226 444.606392,82.5936 452.923392,82.5936 C461.148392,82.5936 469.191392,76.1066 469.191392,67.6986 L469.191392,67.6986 Z" id="Fill-19"></path>
            <polygon id="Fill-20" points="515.014592 53.1663 503.499592 53.1663 503.499592 90.3623 494.269592 90.3623 494.269592 53.1663 482.115592 53.1663 482.115592 44.6683 494.269592 44.6683 494.269592 26.2983 503.499592 26.2983 503.499592 44.6683 515.014592 44.6683"></polygon>
            <path d="M563.383692,67.2405 C563.383692,80.4005 552.600692,91.0945 539.440692,91.0945 C526.278692,91.0945 515.861692,80.4005 515.861692,67.2405 C515.861692,54.0825 526.278692,43.4805 539.440692,43.4805 C552.600692,43.4805 563.383692,54.0825 563.383692,67.2405 M554.610692,67.2405 C554.610692,58.4685 548.303692,51.7055 539.440692,51.7055 C530.756692,51.7055 524.176692,58.4685 524.176692,67.2405 C524.176692,76.1055 530.756692,82.8675 539.440692,82.8675 C548.303692,82.8675 554.610692,76.1055 554.610692,67.2405" id="Fill-21"></path>
            <path d="M591.540892,44.3938 L591.540892,52.7108 C591.631892,52.7108 578.653892,51.7968 577.009892,62.6708 L577.009892,90.2718 L567.413892,90.2718 L567.413892,44.5778 L577.009892,44.5778 L577.009892,48.7798 C580.755892,45.7648 582.126892,44.3938 591.540892,44.3938" id="Fill-22"></path>
            <path d="M495.695192,117.7874 C495.695192,107.7964 503.441192,100.6944 512.320192,100.6944 C521.263192,100.6944 529.008192,107.7964 529.008192,117.7874 C529.008192,127.5824 521.263192,134.8814 512.320192,134.8814 C503.441192,134.8814 495.695192,127.5824 495.695192,117.7874 L495.695192,117.7874 Z M524.411192,117.7874 C524.411192,110.0964 519.058192,104.8364 512.320192,104.8364 C505.583192,104.8364 500.355192,110.0964 500.355192,117.7874 C500.355192,125.2814 505.583192,130.7404 512.320192,130.7404 C519.058192,130.7404 524.411192,125.2814 524.411192,117.7874 L524.411192,117.7874 Z M534.173192,117.7874 C534.173192,107.7964 541.919192,100.6944 550.798192,100.6944 C559.739192,100.6944 567.487192,107.7964 567.487192,117.7874 C567.487192,127.5824 559.739192,134.8814 550.798192,134.8814 C541.919192,134.8814 534.173192,127.5824 534.173192,117.7874 L534.173192,117.7874 Z M562.889192,117.7874 C562.889192,110.0964 557.535192,104.8364 550.798192,104.8364 C544.058192,104.8364 538.834192,110.0964 538.834192,117.7874 C538.834192,125.2814 544.058192,130.7404 550.798192,130.7404 C557.535192,130.7404 562.889192,125.2814 562.889192,117.7874 L562.889192,117.7874 Z M483.731192,134.8764 L488.201192,134.8764 L488.201192,100.6994 L480.735192,100.6994 L480.735192,104.6444 L483.731192,104.6444 L483.731192,134.8764 Z M579.767192,128.0464 L583.797192,128.0464 L583.797192,119.8264 L591.102192,119.8264 L591.102192,115.7494 L583.797192,115.7494 L583.797192,107.5324 L579.767192,107.5324 L579.767192,115.7494 L572.524192,115.7494 L572.524192,119.8264 L579.767192,119.8264 L579.767192,128.0464 Z" id="Fill-23"></path>
        </g>
    </g>
</svg>