<?xml version="1.0" encoding="iso-8859-1"?>
<!-- Generator: Adobe Illustrator 19.0.0, SVG Export Plug-In . SVG Version: 6.00 Build 0)  -->
<svg version="1.1" id="Layer_1" xmlns="http://www.w3.org/2000/svg" xmlns:xlink="http://www.w3.org/1999/xlink" x="0px" y="0px"
	 viewBox="0 0 480 480" style="enable-background:new 0 0 480 480;" xml:space="preserve">
<g>
	<g>
		<g>
			<path d="M68.314,204.423c1.787,3.091,5.086,4.994,8.657,4.994h109.587c3.57,0,6.869-1.903,8.657-4.994l54.774-94.71
				c1.792-3.097,1.792-6.916,0-10.013L195.214,4.994C193.427,1.903,190.127,0,186.557,0H76.971c-3.57,0-6.869,1.903-8.657,4.994
				L13.543,99.7c-1.791,3.097-1.791,6.915,0,10.013L68.314,204.423z M82.739,20h98.05l48.991,84.707l-48.991,84.71h-98.05
				l-48.987-84.71L82.739,20z"/>
			<path d="M466.456,234.994l-54.771-94.707c-1.787-3.09-5.086-4.994-8.656-4.994H293.441c-3.57,0-6.869,1.903-8.656,4.994
				l-54.775,94.707c-1.792,3.097-1.792,6.915,0,10.013l54.775,94.707c1.787,3.09,5.086,4.994,8.656,4.994h109.588
				c3.57,0,6.869-1.903,8.656-4.994l54.771-94.707C468.248,241.909,468.248,238.091,466.456,234.994z M397.261,324.707H299.21
				L250.219,240l48.991-84.706h98.051L446.248,240L397.261,324.707z"/>
			<path d="M195.214,275.577c-1.788-3.09-5.087-4.994-8.657-4.994H76.971c-3.57,0-6.87,1.903-8.657,4.994l-54.771,94.71
				c-1.791,3.097-1.791,6.915,0,10.013l54.771,94.706c1.788,3.09,5.087,4.994,8.657,4.994h109.587c3.57,0,6.869-1.903,8.657-4.994
				l54.774-94.706c1.792-3.097,1.792-6.915,0-10.013L195.214,275.577z M180.789,460h-98.05l-48.987-84.706l48.987-84.711h98.05
				l48.991,84.711L180.789,460z"/>
			<path d="M113.468,40.241c-4.779-2.766-10.897-1.136-13.665,3.644l-37.21,64.272c-2.767,4.779-1.136,10.897,3.644,13.665
				c1.578,0.914,3.3,1.347,5.001,1.347c3.452,0,6.81-1.789,8.664-4.991l37.21-64.272C119.879,49.126,118.247,43.008,113.468,40.241z
				"/>
			<path d="M311.178,199.417c0,5.523,4.478,10,10,10h81.178c5.522,0,10-4.477,10-10s-4.478-10-10-10h-81.178
				C315.655,189.417,311.178,193.894,311.178,199.417z"/>
			<path d="M149.399,426.704c-2.751,4.789-1.1,10.901,3.689,13.652c1.57,0.902,3.282,1.331,4.972,1.331
				c3.463,0,6.831-1.801,8.68-5.02l30.442-52.985c2.751-4.789,1.1-10.901-3.689-13.652c-4.789-2.752-10.901-1.1-13.652,3.689
				L149.399,426.704z"/>
		</g>
	</g>
</g>
<g>
</g>
<g>
</g>
<g>
</g>
<g>
</g>
<g>
</g>
<g>
</g>
<g>
</g>
<g>
</g>
<g>
</g>
<g>
</g>
<g>
</g>
<g>
</g>
<g>
</g>
<g>
</g>
<g>
</g>
</svg>
